<svg width="23" height="22" viewBox="0 0 23 22" fill="none" xmlns="http://www.w3.org/2000/svg">
<path d="M7.67453 21.9999C5.42045 21.9999 3.24102 21.9999 1.00187 21.9999C1.00187 21.776 1.00187 21.5819 1.00187 21.373C1.00187 14.7749 1.00187 8.16197 0.986938 1.56395C0.986938 1.01162 1.15114 0.877274 1.67361 0.892201C3.46493 0.922057 5.25625 0.907129 7.04757 0.907129C7.2267 0.907129 7.42076 0.907129 7.64468 0.907129C7.64468 1.81772 7.64468 2.69845 7.64468 3.72846C7.88352 3.48962 8.01787 3.37019 8.15222 3.23585C11.093 0.369734 16.1982 0.115963 19.2136 2.68352C20.9602 4.17629 21.7215 6.16167 21.9902 8.37096C22.0797 9.13227 22.0947 9.89358 22.0947 10.6549C22.1096 14.2226 22.0947 17.7754 22.0947 21.3431C22.0947 21.5372 22.0947 21.7461 22.0947 21.985C19.8704 21.985 17.691 21.985 15.422 21.985C15.422 21.776 15.422 21.567 15.422 21.3431C15.422 17.9993 15.422 14.6704 15.422 11.3266C15.422 10.7445 15.3921 10.1623 15.2727 9.60996C14.8697 7.56487 13.4366 6.40051 11.4214 6.43036C9.49571 6.46022 8.13729 7.65443 7.77903 9.69952C7.68946 10.1772 7.6596 10.6698 7.6596 11.1475C7.64468 14.5361 7.6596 17.9396 7.6596 21.3282C7.67453 21.5372 7.67453 21.7461 7.67453 21.9999Z" fill="#E5E5E5"/>
</svg>
